<svg xmlns="http://www.w3.org/2000/svg" viewBox="0 0 512 512">
  <defs>
    <linearGradient id="coliz-badge-gradient" x1="0%" y1="0%" x2="100%" y2="100%">
      <stop offset="0%" stop-color="#2B8AA0"/>
      <stop offset="100%" stop-color="#1B5E6E"/>
    </linearGradient>
    <linearGradient id="coliz-box-left" x1="0%" y1="0%" x2="100%" y2="100%">
      <stop offset="0%" stop-color="#FBE3D1"/>
      <stop offset="100%" stop-color="#F0B993"/>
    </linearGradient>
    <linearGradient id="coliz-box-right" x1="0%" y1="0%" x2="100%" y2="100%">
      <stop offset="0%" stop-color="#F0B993"/>
      <stop offset="100%" stop-color="#D98A58"/>
    </linearGradient>
  </defs>

  <circle cx="256" cy="256" r="256" fill="url(#coliz-badge-gradient)"/>

  <ellipse transform="translate(388 253) scale(1.1) translate(-378 -253)" cx="378" cy="318" rx="62" ry="13" fill="#0B2F38" opacity="0.18"/>
  <path d="M 355.03 330.63 A 124 124 0 1 1 355.03 181.37"
        fill="none" stroke="#FFFFFF" stroke-width="70" stroke-linecap="round"/>
  <g transform="translate(388 253) scale(1.1) translate(-378 -253)" stroke="#A9501E" stroke-width="2.5" stroke-linejoin="round">
    <polygon points="326.00,227.00 378.00,253.00 378.00,305.00 326.00,279.00" fill="url(#coliz-box-left)"/>
    <polygon points="378.00,253.00 430.00,227.00 430.00,279.00 378.00,305.00" fill="url(#coliz-box-right)"/>
    <polygon points="378.00,201.00 430.00,227.00 378.00,253.00 326.00,227.00" fill="#FFFFFF"/>
  </g>
  <line transform="translate(388 253) scale(1.1) translate(-378 -253)" x1="378" y1="201" x2="378" y2="253" stroke="#A9501E" stroke-width="2" opacity="0.5"/>
</svg>
